<svg width="21" height="20" viewBox="0 0 21 20" fill="none" xmlns="http://www.w3.org/2000/svg">
<path d="M16.7811 2.1875H15.2186V1.875C15.2186 1.62636 15.1199 1.3879 14.944 1.21209C14.7682 1.03627 14.5298 0.9375 14.2811 0.9375C14.0325 0.9375 13.794 1.03627 13.6182 1.21209C13.4424 1.3879 13.3436 1.62636 13.3436 1.875V2.1875H7.71863V1.875C7.71863 1.62636 7.61986 1.3879 7.44404 1.21209C7.26823 1.03627 7.02977 0.9375 6.78113 0.9375C6.53249 0.9375 6.29403 1.03627 6.11822 1.21209C5.9424 1.3879 5.84363 1.62636 5.84363 1.875V2.1875H4.28113C3.86673 2.1875 3.4693 2.35212 3.17627 2.64515C2.88325 2.93817 2.71863 3.3356 2.71863 3.75V16.25C2.71863 16.6644 2.88325 17.0618 3.17627 17.3549C3.4693 17.6479 3.86673 17.8125 4.28113 17.8125H16.7811C17.1955 17.8125 17.593 17.6479 17.886 17.3549C18.179 17.0618 18.3436 16.6644 18.3436 16.25V3.75C18.3436 3.3356 18.179 2.93817 17.886 2.64515C17.593 2.35212 17.1955 2.1875 16.7811 2.1875ZM5.84363 4.0625C5.84363 4.31114 5.9424 4.5496 6.11822 4.72541C6.29403 4.90123 6.53249 5 6.78113 5C7.02977 5 7.26823 4.90123 7.44404 4.72541C7.61986 4.5496 7.71863 4.31114 7.71863 4.0625H13.3436C13.3436 4.31114 13.4424 4.5496 13.6182 4.72541C13.794 4.90123 14.0325 5 14.2811 5C14.5298 5 14.7682 4.90123 14.944 4.72541C15.1199 4.5496 15.2186 4.31114 15.2186 4.0625H16.4686V5.9375H4.59363V4.0625H5.84363ZM4.59363 15.9375V7.8125H16.4686V15.9375H4.59363Z" fill="white" fill-opacity="0.5"/>
</svg>
