<svg width="21" height="21" viewBox="0 0 24 19" fill="none" xmlns="http://www.w3.org/2000/svg" className="svg-open">
<path d="M23.4145 2.9161L23.4075 2.90917L21.0149 0.579527C20.641 0.209487 20.1342 0.00111728 19.6054 4.48004e-06C19.0767 -0.00110832 18.569 0.205127 18.1934 0.573589L9.19499 9.34389L5.80257 6.11267C5.42664 5.74564 4.91929 5.54069 4.39125 5.54254C3.86322 5.5444 3.35736 5.75291 2.98406 6.12257L0.584473 8.49774C0.210207 8.86883 0 9.37176 0 9.89612C0 10.4205 0.210207 10.9234 0.584473 11.2945L7.74524 18.42C7.93093 18.6039 8.15141 18.7497 8.39407 18.8493C8.63673 18.9488 8.89682 19 9.15949 19C9.42216 19 9.68225 18.9488 9.92491 18.8493C10.1676 18.7497 10.3881 18.6039 10.5737 18.42L23.4145 5.71483C23.7894 5.34366 24 4.84031 24 4.31547C24 3.79062 23.7894 3.28727 23.4145 2.9161ZM9.16299 16.4615L2.56713 9.89711L4.40781 8.07614L7.80223 11.3064C8.17655 11.6726 8.68165 11.878 9.20798 11.878C9.73431 11.878 10.2394 11.6726 10.6137 11.3064L19.6002 2.53508L21.4319 4.31646L9.16299 16.4615Z" fill="#9EF6A7"/>
</svg>
