<svg width="21" height="21" viewBox="0 0 21 21" fill="none" xmlns="http://www.w3.org/2000/svg" className="svg-pending">
<path d="M10.5 0C8.4233 0 6.39323 0.615814 4.66652 1.76957C2.9398 2.92332 1.59399 4.5632 0.799269 6.48182C0.0045495 8.40045 -0.203386 10.5116 0.201759 12.5484C0.606904 14.5852 1.60693 16.4562 3.07538 17.9246C4.54383 19.3931 6.41475 20.3931 8.45155 20.7982C10.4884 21.2034 12.5996 20.9955 14.5182 20.2007C16.4368 19.406 18.0767 18.0602 19.2304 16.3335C20.3842 14.6068 21 12.5767 21 10.5C20.9969 7.71617 19.8897 5.04725 17.9212 3.07879C15.9527 1.11033 13.2838 0.00308799 10.5 0ZM10.5 18.6667C8.88479 18.6667 7.30585 18.1877 5.96285 17.2903C4.61985 16.393 3.5731 15.1175 2.95499 13.6252C2.33687 12.133 2.17515 10.4909 2.49026 8.90676C2.80537 7.32258 3.58317 5.86742 4.7253 4.72529C5.86743 3.58316 7.32259 2.80537 8.90676 2.49025C10.4909 2.17514 12.133 2.33687 13.6252 2.95498C15.1175 3.5731 16.393 4.61984 17.2903 5.96284C18.1877 7.30584 18.6667 8.88478 18.6667 10.5C18.6644 12.6652 17.8032 14.7411 16.2721 16.2721C14.7411 17.8032 12.6652 18.6643 10.5 18.6667ZM17.1111 10.5C17.1111 10.8094 16.9882 11.1062 16.7694 11.325C16.5506 11.5437 16.2539 11.6667 15.9444 11.6667H10.5C10.1906 11.6667 9.89384 11.5437 9.67504 11.325C9.45625 11.1062 9.33334 10.8094 9.33334 10.5V5.05555C9.33334 4.74614 9.45625 4.44939 9.67504 4.2306C9.89384 4.0118 10.1906 3.88889 10.5 3.88889C10.8094 3.88889 11.1062 4.0118 11.325 4.2306C11.5438 4.44939 11.6667 4.74614 11.6667 5.05555V9.33333H15.9444C16.2539 9.33333 16.5506 9.45625 16.7694 9.67504C16.9882 9.89383 17.1111 10.1906 17.1111 10.5Z" fill="#E9DB5E" fill-opacity="1"/>
</svg>
